<svg width="283" height="283" viewBox="0 0 283 283" fill="none" xmlns="http://www.w3.org/2000/svg">
<path d="M43.2857 23.6429C43.2857 34.4913 34.4913 43.2857 23.6429 43.2857C12.7944 43.2857 4 34.4913 4 23.6429C4 12.7944 12.7944 4 23.6429 4C34.4913 4 43.2857 12.7944 43.2857 23.6429Z" stroke="url(#paint0_linear_8_55)" stroke-width="8" stroke-linecap="round"/>
<path d="M161.143 23.6429C161.143 34.4913 152.348 43.2857 141.5 43.2857C130.652 43.2857 121.857 34.4913 121.857 23.6429C121.857 12.7944 130.652 4 141.5 4C152.348 4 161.143 12.7944 161.143 23.6429Z" stroke="url(#paint1_linear_8_55)" stroke-width="8" stroke-linecap="round"/>
<path d="M279 23.6429C279 34.4913 270.206 43.2857 259.357 43.2857C248.509 43.2857 239.714 34.4913 239.714 23.6429C239.714 12.7944 248.509 4 259.357 4C270.206 4 279 12.7944 279 23.6429Z" stroke="url(#paint2_linear_8_55)" stroke-width="8" stroke-linecap="round"/>
<path d="M43.2857 141.5C43.2857 152.348 34.4913 161.143 23.6429 161.143C12.7944 161.143 4 152.348 4 141.5C4 130.652 12.7944 121.857 23.6429 121.857C34.4913 121.857 43.2857 130.652 43.2857 141.5Z" stroke="url(#paint3_linear_8_55)" stroke-width="8" stroke-linecap="round"/>
<path d="M161.143 141.5C161.143 152.348 152.348 161.143 141.5 161.143C130.652 161.143 121.857 152.348 121.857 141.5C121.857 130.652 130.652 121.857 141.5 121.857C152.348 121.857 161.143 130.652 161.143 141.5Z" stroke="url(#paint4_linear_8_55)" stroke-width="8" stroke-linecap="round"/>
<path d="M279 141.5C279 152.348 270.206 161.143 259.357 161.143C248.509 161.143 239.714 152.348 239.714 141.5C239.714 130.652 248.509 121.857 259.357 121.857C270.206 121.857 279 130.652 279 141.5Z" stroke="url(#paint5_linear_8_55)" stroke-width="8" stroke-linecap="round"/>
<path d="M43.2857 259.357C43.2857 270.206 34.4913 279 23.6429 279C12.7944 279 4 270.206 4 259.357C4 248.509 12.7944 239.714 23.6429 239.714C34.4913 239.714 43.2857 248.509 43.2857 259.357Z" stroke="url(#paint6_linear_8_55)" stroke-width="8" stroke-linecap="round"/>
<path d="M161.143 259.357C161.143 270.206 152.348 279 141.5 279C130.652 279 121.857 270.206 121.857 259.357C121.857 248.509 130.652 239.714 141.5 239.714C152.348 239.714 161.143 248.509 161.143 259.357Z" stroke="url(#paint7_linear_8_55)" stroke-width="8" stroke-linecap="round"/>
<path d="M279 259.357C279 270.206 270.206 279 259.357 279C248.509 279 239.714 270.206 239.714 259.357C239.714 248.509 248.509 239.714 259.357 239.714C270.206 239.714 279 248.509 279 259.357Z" stroke="url(#paint8_linear_8_55)" stroke-width="8" stroke-linecap="round"/>
<defs>
<linearGradient id="paint0_linear_8_55" x1="279" y1="4" x2="-52.3631" y2="126.348" gradientUnits="userSpaceOnUse">
<stop stop-color="#F29682"/>
<stop offset="0.5" stop-color="#EE69AC"/>
<stop offset="1" stop-color="#CB4BCF"/>
</linearGradient>
<linearGradient id="paint1_linear_8_55" x1="279" y1="4" x2="-52.3631" y2="126.348" gradientUnits="userSpaceOnUse">
<stop stop-color="#F29682"/>
<stop offset="0.5" stop-color="#EE69AC"/>
<stop offset="1" stop-color="#CB4BCF"/>
</linearGradient>
<linearGradient id="paint2_linear_8_55" x1="279" y1="4" x2="-52.3631" y2="126.348" gradientUnits="userSpaceOnUse">
<stop stop-color="#F29682"/>
<stop offset="0.5" stop-color="#EE69AC"/>
<stop offset="1" stop-color="#CB4BCF"/>
</linearGradient>
<linearGradient id="paint3_linear_8_55" x1="279" y1="4" x2="-52.3631" y2="126.348" gradientUnits="userSpaceOnUse">
<stop stop-color="#F29682"/>
<stop offset="0.5" stop-color="#EE69AC"/>
<stop offset="1" stop-color="#CB4BCF"/>
</linearGradient>
<linearGradient id="paint4_linear_8_55" x1="279" y1="4" x2="-52.3631" y2="126.348" gradientUnits="userSpaceOnUse">
<stop stop-color="#F29682"/>
<stop offset="0.5" stop-color="#EE69AC"/>
<stop offset="1" stop-color="#CB4BCF"/>
</linearGradient>
<linearGradient id="paint5_linear_8_55" x1="279" y1="4" x2="-52.3631" y2="126.348" gradientUnits="userSpaceOnUse">
<stop stop-color="#F29682"/>
<stop offset="0.5" stop-color="#EE69AC"/>
<stop offset="1" stop-color="#CB4BCF"/>
</linearGradient>
<linearGradient id="paint6_linear_8_55" x1="279" y1="4" x2="-52.3631" y2="126.348" gradientUnits="userSpaceOnUse">
<stop stop-color="#F29682"/>
<stop offset="0.5" stop-color="#EE69AC"/>
<stop offset="1" stop-color="#CB4BCF"/>
</linearGradient>
<linearGradient id="paint7_linear_8_55" x1="279" y1="4" x2="-52.3631" y2="126.348" gradientUnits="userSpaceOnUse">
<stop stop-color="#F29682"/>
<stop offset="0.5" stop-color="#EE69AC"/>
<stop offset="1" stop-color="#CB4BCF"/>
</linearGradient>
<linearGradient id="paint8_linear_8_55" x1="279" y1="4" x2="-52.3631" y2="126.348" gradientUnits="userSpaceOnUse">
<stop stop-color="#F29682"/>
<stop offset="0.5" stop-color="#EE69AC"/>
<stop offset="1" stop-color="#CB4BCF"/>
</linearGradient>
</defs>
</svg>
