<svg width="29" height="29" viewBox="0 0 29 29" fill="none" xmlns="http://www.w3.org/2000/svg">
<path d="M4.85714 2.92857C4.85714 3.99369 3.99369 4.85714 2.92857 4.85714C1.86345 4.85714 1 3.99369 1 2.92857C1 1.86345 1.86345 1 2.92857 1C3.99369 1 4.85714 1.86345 4.85714 2.92857Z" stroke="url(#paint0_linear_7_155)" stroke-linecap="round"/>
<path d="M16.4286 2.92857C16.4286 3.99369 15.5651 4.85714 14.5 4.85714C13.4349 4.85714 12.5714 3.99369 12.5714 2.92857C12.5714 1.86345 13.4349 1 14.5 1C15.5651 1 16.4286 1.86345 16.4286 2.92857Z" stroke="url(#paint1_linear_7_155)" stroke-linecap="round"/>
<path d="M28 2.92857C28 3.99369 27.1365 4.85714 26.0714 4.85714C25.0063 4.85714 24.1429 3.99369 24.1429 2.92857C24.1429 1.86345 25.0063 1 26.0714 1C27.1365 1 28 1.86345 28 2.92857Z" stroke="url(#paint2_linear_7_155)" stroke-linecap="round"/>
<path d="M4.85714 14.5C4.85714 15.5651 3.99369 16.4286 2.92857 16.4286C1.86345 16.4286 1 15.5651 1 14.5C1 13.4349 1.86345 12.5714 2.92857 12.5714C3.99369 12.5714 4.85714 13.4349 4.85714 14.5Z" stroke="url(#paint3_linear_7_155)" stroke-linecap="round"/>
<path d="M16.4286 14.5C16.4286 15.5651 15.5651 16.4286 14.5 16.4286C13.4349 16.4286 12.5714 15.5651 12.5714 14.5C12.5714 13.4349 13.4349 12.5714 14.5 12.5714C15.5651 12.5714 16.4286 13.4349 16.4286 14.5Z" stroke="url(#paint4_linear_7_155)" stroke-linecap="round"/>
<path d="M28 14.5C28 15.5651 27.1365 16.4286 26.0714 16.4286C25.0063 16.4286 24.1429 15.5651 24.1429 14.5C24.1429 13.4349 25.0063 12.5714 26.0714 12.5714C27.1365 12.5714 28 13.4349 28 14.5Z" stroke="url(#paint5_linear_7_155)" stroke-linecap="round"/>
<path d="M4.85714 26.0714C4.85714 27.1365 3.99369 28 2.92857 28C1.86345 28 1 27.1365 1 26.0714C1 25.0063 1.86345 24.1429 2.92857 24.1429C3.99369 24.1429 4.85714 25.0063 4.85714 26.0714Z" stroke="url(#paint6_linear_7_155)" stroke-linecap="round"/>
<path d="M16.4286 26.0714C16.4286 27.1365 15.5651 28 14.5 28C13.4349 28 12.5714 27.1365 12.5714 26.0714C12.5714 25.0063 13.4349 24.1429 14.5 24.1429C15.5651 24.1429 16.4286 25.0063 16.4286 26.0714Z" stroke="url(#paint7_linear_7_155)" stroke-linecap="round"/>
<path d="M28 26.0714C28 27.1365 27.1365 28 26.0714 28C25.0063 28 24.1429 27.1365 24.1429 26.0714C24.1429 25.0063 25.0063 24.1429 26.0714 24.1429C27.1365 24.1429 28 25.0063 28 26.0714Z" stroke="url(#paint8_linear_7_155)" stroke-linecap="round"/>
<defs>
<linearGradient id="paint0_linear_7_155" x1="28" y1="1" x2="-4.53383" y2="13.0123" gradientUnits="userSpaceOnUse">
<stop stop-color="#F29682"/>
<stop offset="0.5" stop-color="#EE69AC"/>
<stop offset="1" stop-color="#CB4BCF"/>
</linearGradient>
<linearGradient id="paint1_linear_7_155" x1="28" y1="1" x2="-4.53383" y2="13.0123" gradientUnits="userSpaceOnUse">
<stop stop-color="#F29682"/>
<stop offset="0.5" stop-color="#EE69AC"/>
<stop offset="1" stop-color="#CB4BCF"/>
</linearGradient>
<linearGradient id="paint2_linear_7_155" x1="28" y1="1" x2="-4.53383" y2="13.0123" gradientUnits="userSpaceOnUse">
<stop stop-color="#F29682"/>
<stop offset="0.5" stop-color="#EE69AC"/>
<stop offset="1" stop-color="#CB4BCF"/>
</linearGradient>
<linearGradient id="paint3_linear_7_155" x1="28" y1="1" x2="-4.53383" y2="13.0123" gradientUnits="userSpaceOnUse">
<stop stop-color="#F29682"/>
<stop offset="0.5" stop-color="#EE69AC"/>
<stop offset="1" stop-color="#CB4BCF"/>
</linearGradient>
<linearGradient id="paint4_linear_7_155" x1="28" y1="1" x2="-4.53383" y2="13.0123" gradientUnits="userSpaceOnUse">
<stop stop-color="#F29682"/>
<stop offset="0.5" stop-color="#EE69AC"/>
<stop offset="1" stop-color="#CB4BCF"/>
</linearGradient>
<linearGradient id="paint5_linear_7_155" x1="28" y1="1" x2="-4.53383" y2="13.0123" gradientUnits="userSpaceOnUse">
<stop stop-color="#F29682"/>
<stop offset="0.5" stop-color="#EE69AC"/>
<stop offset="1" stop-color="#CB4BCF"/>
</linearGradient>
<linearGradient id="paint6_linear_7_155" x1="28" y1="1" x2="-4.53383" y2="13.0123" gradientUnits="userSpaceOnUse">
<stop stop-color="#F29682"/>
<stop offset="0.5" stop-color="#EE69AC"/>
<stop offset="1" stop-color="#CB4BCF"/>
</linearGradient>
<linearGradient id="paint7_linear_7_155" x1="28" y1="1" x2="-4.53383" y2="13.0123" gradientUnits="userSpaceOnUse">
<stop stop-color="#F29682"/>
<stop offset="0.5" stop-color="#EE69AC"/>
<stop offset="1" stop-color="#CB4BCF"/>
</linearGradient>
<linearGradient id="paint8_linear_7_155" x1="28" y1="1" x2="-4.53383" y2="13.0123" gradientUnits="userSpaceOnUse">
<stop stop-color="#F29682"/>
<stop offset="0.5" stop-color="#EE69AC"/>
<stop offset="1" stop-color="#CB4BCF"/>
</linearGradient>
</defs>
</svg>
