<svg width="43" height="43" viewBox="0 0 43 43" fill="none" xmlns="http://www.w3.org/2000/svg">
<path d="M6.85714 3.92857C6.85714 5.54598 5.54598 6.85714 3.92857 6.85714C2.31117 6.85714 1 5.54598 1 3.92857C1 2.31117 2.31117 1 3.92857 1C5.54598 1 6.85714 2.31117 6.85714 3.92857Z" stroke="url(#paint0_linear_7_156)" stroke-width="2" stroke-linecap="round"/>
<path d="M24.4286 3.92857C24.4286 5.54598 23.1174 6.85714 21.5 6.85714C19.8826 6.85714 18.5714 5.54598 18.5714 3.92857C18.5714 2.31117 19.8826 1 21.5 1C23.1174 1 24.4286 2.31117 24.4286 3.92857Z" stroke="url(#paint1_linear_7_156)" stroke-width="2" stroke-linecap="round"/>
<path d="M42 3.92857C42 5.54598 40.6888 6.85714 39.0714 6.85714C37.454 6.85714 36.1429 5.54598 36.1429 3.92857C36.1429 2.31117 37.454 1 39.0714 1C40.6888 1 42 2.31117 42 3.92857Z" stroke="url(#paint2_linear_7_156)" stroke-width="2" stroke-linecap="round"/>
<path d="M6.85714 21.5C6.85714 23.1174 5.54598 24.4286 3.92857 24.4286C2.31117 24.4286 1 23.1174 1 21.5C1 19.8826 2.31117 18.5714 3.92857 18.5714C5.54598 18.5714 6.85714 19.8826 6.85714 21.5Z" stroke="url(#paint3_linear_7_156)" stroke-width="2" stroke-linecap="round"/>
<path d="M24.4286 21.5C24.4286 23.1174 23.1174 24.4286 21.5 24.4286C19.8826 24.4286 18.5714 23.1174 18.5714 21.5C18.5714 19.8826 19.8826 18.5714 21.5 18.5714C23.1174 18.5714 24.4286 19.8826 24.4286 21.5Z" stroke="url(#paint4_linear_7_156)" stroke-width="2" stroke-linecap="round"/>
<path d="M42 21.5C42 23.1174 40.6888 24.4286 39.0714 24.4286C37.454 24.4286 36.1429 23.1174 36.1429 21.5C36.1429 19.8826 37.454 18.5714 39.0714 18.5714C40.6888 18.5714 42 19.8826 42 21.5Z" stroke="url(#paint5_linear_7_156)" stroke-width="2" stroke-linecap="round"/>
<path d="M6.85714 39.0714C6.85714 40.6888 5.54598 42 3.92857 42C2.31117 42 1 40.6888 1 39.0714C1 37.454 2.31117 36.1429 3.92857 36.1429C5.54598 36.1429 6.85714 37.454 6.85714 39.0714Z" stroke="url(#paint6_linear_7_156)" stroke-width="2" stroke-linecap="round"/>
<path d="M24.4286 39.0714C24.4286 40.6888 23.1174 42 21.5 42C19.8826 42 18.5714 40.6888 18.5714 39.0714C18.5714 37.454 19.8826 36.1429 21.5 36.1429C23.1174 36.1429 24.4286 37.454 24.4286 39.0714Z" stroke="url(#paint7_linear_7_156)" stroke-width="2" stroke-linecap="round"/>
<path d="M42 39.0714C42 40.6888 40.6888 42 39.0714 42C37.454 42 36.1429 40.6888 36.1429 39.0714C36.1429 37.454 37.454 36.1429 39.0714 36.1429C40.6888 36.1429 42 37.454 42 39.0714Z" stroke="url(#paint8_linear_7_156)" stroke-width="2" stroke-linecap="round"/>
<defs>
<linearGradient id="paint0_linear_7_156" x1="42" y1="1" x2="-7.40323" y2="19.2409" gradientUnits="userSpaceOnUse">
<stop stop-color="#F29682"/>
<stop offset="0.5" stop-color="#EE69AC"/>
<stop offset="1" stop-color="#CB4BCF"/>
</linearGradient>
<linearGradient id="paint1_linear_7_156" x1="42" y1="1" x2="-7.40323" y2="19.2409" gradientUnits="userSpaceOnUse">
<stop stop-color="#F29682"/>
<stop offset="0.5" stop-color="#EE69AC"/>
<stop offset="1" stop-color="#CB4BCF"/>
</linearGradient>
<linearGradient id="paint2_linear_7_156" x1="42" y1="1" x2="-7.40323" y2="19.2409" gradientUnits="userSpaceOnUse">
<stop stop-color="#F29682"/>
<stop offset="0.5" stop-color="#EE69AC"/>
<stop offset="1" stop-color="#CB4BCF"/>
</linearGradient>
<linearGradient id="paint3_linear_7_156" x1="42" y1="1" x2="-7.40323" y2="19.2409" gradientUnits="userSpaceOnUse">
<stop stop-color="#F29682"/>
<stop offset="0.5" stop-color="#EE69AC"/>
<stop offset="1" stop-color="#CB4BCF"/>
</linearGradient>
<linearGradient id="paint4_linear_7_156" x1="42" y1="1" x2="-7.40323" y2="19.2409" gradientUnits="userSpaceOnUse">
<stop stop-color="#F29682"/>
<stop offset="0.5" stop-color="#EE69AC"/>
<stop offset="1" stop-color="#CB4BCF"/>
</linearGradient>
<linearGradient id="paint5_linear_7_156" x1="42" y1="1" x2="-7.40323" y2="19.2409" gradientUnits="userSpaceOnUse">
<stop stop-color="#F29682"/>
<stop offset="0.5" stop-color="#EE69AC"/>
<stop offset="1" stop-color="#CB4BCF"/>
</linearGradient>
<linearGradient id="paint6_linear_7_156" x1="42" y1="1" x2="-7.40323" y2="19.2409" gradientUnits="userSpaceOnUse">
<stop stop-color="#F29682"/>
<stop offset="0.5" stop-color="#EE69AC"/>
<stop offset="1" stop-color="#CB4BCF"/>
</linearGradient>
<linearGradient id="paint7_linear_7_156" x1="42" y1="1" x2="-7.40323" y2="19.2409" gradientUnits="userSpaceOnUse">
<stop stop-color="#F29682"/>
<stop offset="0.5" stop-color="#EE69AC"/>
<stop offset="1" stop-color="#CB4BCF"/>
</linearGradient>
<linearGradient id="paint8_linear_7_156" x1="42" y1="1" x2="-7.40323" y2="19.2409" gradientUnits="userSpaceOnUse">
<stop stop-color="#F29682"/>
<stop offset="0.5" stop-color="#EE69AC"/>
<stop offset="1" stop-color="#CB4BCF"/>
</linearGradient>
</defs>
</svg>
