<svg width="79" height="79" viewBox="0 0 79 79" fill="none" xmlns="http://www.w3.org/2000/svg">
<path d="M12.7143 7.35714C12.7143 10.3158 10.3158 12.7143 7.35714 12.7143C4.39847 12.7143 2 10.3158 2 7.35714C2 4.39847 4.39847 2 7.35714 2C10.3158 2 12.7143 4.39847 12.7143 7.35714Z" stroke="url(#paint0_linear_10_104)" stroke-width="3" stroke-linecap="round"/>
<path d="M44.8571 7.35714C44.8571 10.3158 42.4587 12.7143 39.5 12.7143C36.5413 12.7143 34.1429 10.3158 34.1429 7.35714C34.1429 4.39847 36.5413 2 39.5 2C42.4587 2 44.8571 4.39847 44.8571 7.35714Z" stroke="url(#paint1_linear_10_104)" stroke-width="3" stroke-linecap="round"/>
<path d="M77 7.35714C77 10.3158 74.6015 12.7143 71.6429 12.7143C68.6842 12.7143 66.2857 10.3158 66.2857 7.35714C66.2857 4.39847 68.6842 2 71.6429 2C74.6015 2 77 4.39847 77 7.35714Z" stroke="url(#paint2_linear_10_104)" stroke-width="3" stroke-linecap="round"/>
<path d="M12.7143 39.5C12.7143 42.4587 10.3158 44.8571 7.35714 44.8571C4.39847 44.8571 2 42.4587 2 39.5C2 36.5413 4.39847 34.1429 7.35714 34.1429C10.3158 34.1429 12.7143 36.5413 12.7143 39.5Z" stroke="url(#paint3_linear_10_104)" stroke-width="3" stroke-linecap="round"/>
<path d="M44.8571 39.5C44.8571 42.4587 42.4587 44.8571 39.5 44.8571C36.5413 44.8571 34.1429 42.4587 34.1429 39.5C34.1429 36.5413 36.5413 34.1429 39.5 34.1429C42.4587 34.1429 44.8571 36.5413 44.8571 39.5Z" stroke="url(#paint4_linear_10_104)" stroke-width="3" stroke-linecap="round"/>
<path d="M77 39.5C77 42.4587 74.6015 44.8571 71.6429 44.8571C68.6842 44.8571 66.2857 42.4587 66.2857 39.5C66.2857 36.5413 68.6842 34.1429 71.6429 34.1429C74.6015 34.1429 77 36.5413 77 39.5Z" stroke="url(#paint5_linear_10_104)" stroke-width="3" stroke-linecap="round"/>
<path d="M12.7143 71.6429C12.7143 74.6015 10.3158 77 7.35714 77C4.39847 77 2 74.6015 2 71.6429C2 68.6842 4.39847 66.2857 7.35714 66.2857C10.3158 66.2857 12.7143 68.6842 12.7143 71.6429Z" stroke="url(#paint6_linear_10_104)" stroke-width="3" stroke-linecap="round"/>
<path d="M44.8571 71.6429C44.8571 74.6015 42.4587 77 39.5 77C36.5413 77 34.1429 74.6015 34.1429 71.6429C34.1429 68.6842 36.5413 66.2857 39.5 66.2857C42.4587 66.2857 44.8571 68.6842 44.8571 71.6429Z" stroke="url(#paint7_linear_10_104)" stroke-width="3" stroke-linecap="round"/>
<path d="M77 71.6429C77 74.6015 74.6015 77 71.6429 77C68.6842 77 66.2857 74.6015 66.2857 71.6429C66.2857 68.6842 68.6842 66.2857 71.6429 66.2857C74.6015 66.2857 77 68.6842 77 71.6429Z" stroke="url(#paint8_linear_10_104)" stroke-width="3" stroke-linecap="round"/>
<defs>
<linearGradient id="paint0_linear_10_104" x1="77" y1="2" x2="-13.3718" y2="35.3675" gradientUnits="userSpaceOnUse">
<stop stop-color="#F29682"/>
<stop offset="0.5" stop-color="#EE69AC"/>
<stop offset="1" stop-color="#CB4BCF"/>
</linearGradient>
<linearGradient id="paint1_linear_10_104" x1="77" y1="2" x2="-13.3718" y2="35.3675" gradientUnits="userSpaceOnUse">
<stop stop-color="#F29682"/>
<stop offset="0.5" stop-color="#EE69AC"/>
<stop offset="1" stop-color="#CB4BCF"/>
</linearGradient>
<linearGradient id="paint2_linear_10_104" x1="77" y1="2" x2="-13.3718" y2="35.3675" gradientUnits="userSpaceOnUse">
<stop stop-color="#F29682"/>
<stop offset="0.5" stop-color="#EE69AC"/>
<stop offset="1" stop-color="#CB4BCF"/>
</linearGradient>
<linearGradient id="paint3_linear_10_104" x1="77" y1="2" x2="-13.3718" y2="35.3675" gradientUnits="userSpaceOnUse">
<stop stop-color="#F29682"/>
<stop offset="0.5" stop-color="#EE69AC"/>
<stop offset="1" stop-color="#CB4BCF"/>
</linearGradient>
<linearGradient id="paint4_linear_10_104" x1="77" y1="2" x2="-13.3718" y2="35.3675" gradientUnits="userSpaceOnUse">
<stop stop-color="#F29682"/>
<stop offset="0.5" stop-color="#EE69AC"/>
<stop offset="1" stop-color="#CB4BCF"/>
</linearGradient>
<linearGradient id="paint5_linear_10_104" x1="77" y1="2" x2="-13.3718" y2="35.3675" gradientUnits="userSpaceOnUse">
<stop stop-color="#F29682"/>
<stop offset="0.5" stop-color="#EE69AC"/>
<stop offset="1" stop-color="#CB4BCF"/>
</linearGradient>
<linearGradient id="paint6_linear_10_104" x1="77" y1="2" x2="-13.3718" y2="35.3675" gradientUnits="userSpaceOnUse">
<stop stop-color="#F29682"/>
<stop offset="0.5" stop-color="#EE69AC"/>
<stop offset="1" stop-color="#CB4BCF"/>
</linearGradient>
<linearGradient id="paint7_linear_10_104" x1="77" y1="2" x2="-13.3718" y2="35.3675" gradientUnits="userSpaceOnUse">
<stop stop-color="#F29682"/>
<stop offset="0.5" stop-color="#EE69AC"/>
<stop offset="1" stop-color="#CB4BCF"/>
</linearGradient>
<linearGradient id="paint8_linear_10_104" x1="77" y1="2" x2="-13.3718" y2="35.3675" gradientUnits="userSpaceOnUse">
<stop stop-color="#F29682"/>
<stop offset="0.5" stop-color="#EE69AC"/>
<stop offset="1" stop-color="#CB4BCF"/>
</linearGradient>
</defs>
</svg>
