<svg width="48" height="43" viewBox="0 0 48 43" fill="none" xmlns="http://www.w3.org/2000/svg">
<path d="M14.4034 9.68891V3.18891L12.3352 3.09658C7.3125 2.87499 2.16051 1.43465 0 0.899139V5.99573C2.23438 6.88209 7.47869 8.98721 12.3722 9.48579L14.4034 9.68891ZM28.6037 6.40198C28.6037 8.76562 30.5795 10.8153 33.0355 10.8338C35.4545 10.8153 37.4304 8.76562 37.4304 6.40198C37.4304 3.96448 35.4545 1.9517 33.0355 1.97016C30.5795 1.9517 28.6037 3.96448 28.6037 6.40198Z" fill="#00FFF0"/>
<path d="M24.3935 42.0735C33.571 42.0735 41.1974 39.6545 47.7713 34.6133V27.0976C42.8963 30.957 33.1463 33.8931 24.3935 33.8931C15.6591 33.8931 5.90909 30.957 1.03409 27.0976V34.6133C7.60795 39.6545 15.2159 42.0735 24.3935 42.0735Z" fill="#00FFF0"/>
</svg>
